<?xml version="1.0" encoding="UTF-8"?>
<svg width="151px" height="60px" viewBox="0 0 151 60" version="1.1" xmlns="http://www.w3.org/2000/svg" xmlns:xlink="http://www.w3.org/1999/xlink">
    <!-- Generator: Sketch 52.6 (67491) - http://www.bohemiancoding.com/sketch -->
    <title>Cannes Lions Logo</title>
    <desc>Created with Sketch.</desc>
    <g id="Page-1" stroke="none" stroke-width="1" fill="none" fill-rule="evenodd">
        <path d="M95.1325226,26.0135469 C94.7145228,25.6907351 93.4770777,24.3829337 92.6038306,21.6804199 C91.7388606,18.9779062 90.7166234,17.1320852 92.4796722,14.4585417 C94.2344438,11.7891369 94.4082655,9.28941515 94.6400278,8.36650464 C94.8676514,7.4353169 94.7848792,6.16476297 96.9286803,5.06803075 C99.07662,3.97957576 100.71551,3.71470458 102.304737,3.17254639 C103.889826,2.63452681 105.520439,1.26050757 106.265389,0.763874112 C107.060003,0.229993144 109.791487,0.151359513 110.846833,1.6122896 C112.042892,3.26359585 118.197008,3.77678376 119.061978,4.91904071 C120.059384,6.23511938 119.359958,7.70846531 118.834354,8.28373239 C117.77487,9.43840519 113.036159,13.4156115 112.630575,13.4569976 C112.162912,13.5066609 112.452614,12.2816317 112.858198,11.2180084 C113.263782,10.1543851 113.921822,9.4094349 113.702475,8.32925713 C113.528654,7.41462384 112.891307,6.60345586 111.591783,5.74262453 C109.754239,4.59209035 106.236419,3.87197184 104.974142,4.39343697 C102.788955,5.30807026 101.99848,7.37323772 101.812243,8.82589059 C101.630144,10.2785435 101.423213,12.2568001 100.053332,14.6033932 C98.6793132,16.941709 97.8474522,18.2908966 98.1702639,19.6607772 C98.4972143,21.0389351 99.5608376,23.2862015 99.6808574,24.614696 C99.813293,25.9431905 99.6560257,27.0109524 99.3621842,28.3394469 C99.0724814,29.6638028 98.8862438,30.6405152 99.300105,31.517901 C99.7139663,32.3952868 99.9167583,32.585663 100.020224,32.7015441 C100.123689,32.8339797 100.194045,33.0491875 99.8836494,32.8339797 C99.5773921,32.6104946 97.8474522,30.9053864 97.2349376,29.0802585 C96.6141458,27.2551305 97.2059673,24.6809137 96.953512,23.7828349 C96.7010566,22.8888947 94.9959484,20.4181432 95.128384,18.3529758 C95.2732354,16.2836697 96.8955714,14.0653736 97.6032741,12.918978 C98.3151154,11.7725824 99.8836494,9.61636551 100.214738,8.6272372 C100.53755,7.64224751 101.216282,5.77159482 101.555649,5.30807026 C101.555649,5.30807026 101.270084,5.55638699 99.8215702,7.31529715 C98.3689173,9.07834593 97.0776703,10.3447612 96.6886408,11.9546814 C96.2996112,13.5604629 95.3601463,15.0793336 94.1351171,16.1264024 C92.9225037,17.1776099 93.6508995,18.5805994 94.0523448,20.2857076 C94.4496516,21.9784 94.7310772,22.586776 95.662265,24.283607 C96.5851755,25.980438 96.1464826,27.3544572 96.2540865,27.5903581 C96.3616904,27.8179818 95.5463838,26.3363586 95.1325226,26.0135469 Z M106.795132,24.635389 C106.844795,24.3291317 107.258656,23.1082411 107.320735,22.4336473 C107.382815,21.754915 107.440755,21.1175687 106.952399,21.2500043 C106.464043,21.370024 105.921884,21.370024 105.702538,21.2003409 C105.483192,21.0347964 105.466637,20.8402817 105.685984,20.8237272 C105.901191,20.8113114 106.89032,20.538163 107.30832,20.1781037 C107.718042,19.8304603 107.929111,19.4993713 108.020161,19.2841635 C108.11121,19.0689557 108.107072,18.9282429 107.734597,19.118619 C107.370399,19.3007179 106.613033,19.8428761 106.298498,20.0373909 C105.992241,20.2443215 105.346617,20.4140046 105.313509,20.538163 C105.2804,20.6623213 105.466637,21.4610735 105.466637,22.2763801 C105.466637,23.0958253 105.379726,24.4201812 105.123132,24.2215278 C104.878954,24.027013 104.986558,23.4517459 104.605806,23.0834095 C104.216776,22.7109344 103.75739,22.0694495 103.815331,21.4155488 C103.87741,20.761648 103.96846,20.6002422 103.856717,20.2277671 C103.749113,19.855292 103.736697,19.3255496 104.059509,19.2634704 C104.386459,19.2055299 104.510618,19.5448961 105.267984,19.4207377 C105.975686,19.3048566 106.733052,18.8496092 107.304181,18.4067777 C107.879448,17.9515304 108.864438,16.8754912 109.406596,16.7637487 C109.944616,16.6561448 110.300536,16.7016695 110.726813,16.1636499 C111.161367,15.6214917 111.670417,15.1248583 111.922872,14.9427594 C112.16705,14.7523832 112.402951,14.5288981 112.494001,14.5909773 C112.589189,14.6489179 111.645585,16.9624021 110.08119,19.6649158 C108.525072,22.3632909 107.552498,23.9566566 107.30832,24.3125773 C107.060003,24.6643593 106.753746,24.9457849 106.795132,24.635389 Z M117.423088,2.4275962 C115.250316,1.9185469 113.081684,2.51450705 111.310358,1.26464618 C111.190338,1.17773533 111.115843,0.850784967 111.331051,0.842507743 C113.313446,0.747319663 115.759366,0.196884247 117.750038,0.863200803 C117.927998,0.883893864 121.884512,2.86628909 123.539956,4.77005068 C124.359402,5.70537702 126.101757,7.59258417 125.845163,8.73897973 C125.576154,9.87709807 125.096075,10.4978899 123.403382,11.3752757 C122.397699,11.9008794 114.61297,13.581156 114.480534,13.6142648 C113.197565,13.953631 113.528654,13.324562 114.112198,12.8693147 C114.704019,12.4306218 115.432415,11.830523 117.278236,10.6841274 C119.128196,9.53773188 119.935225,9.05351426 120.642928,8.24648489 C121.91762,6.79383202 121.098175,3.62365511 117.423088,2.4275962 Z M119.401344,43.7557772 C124.897421,36.7449682 133.634031,39.5633631 134.118249,40.8008081 C122.948135,39.5012839 123.991065,48.0806269 117.642434,50.3858338 C114.546752,51.4742888 105.921884,50.853497 97.6860463,58.0877911 C95.0621662,59.8011765 90.9525243,58.7996323 89.8971782,58.749969 C88.8501094,58.6920284 87.3229615,58.6920284 86.5821499,58.9072363 C85.8371997,59.101751 85.4771405,59.0520877 85.1170812,58.8492957 C84.7528833,58.6382265 84.2686657,58.4354345 83.5237155,58.1291772 C82.7787653,57.8146426 82.2283299,57.8146426 82.2283299,57.8146426 C82.2283299,57.8146426 81.3881916,56.1716136 81.7441123,55.0748814 C82.1041716,53.9615947 82.8449831,53.2414762 83.337478,52.9724664 C83.8341114,52.7241497 83.9582698,52.6703477 83.9582698,52.6703477 C83.9582698,52.6703477 83.9789629,52.5130805 83.7265075,52.5130805 C83.4657749,52.5130805 83.1843493,52.8193378 83.0270821,52.8483081 C82.8739534,52.8772784 82.8739534,52.6413775 83.0560523,52.3889221 C83.2340127,52.1281896 84.4176557,50.9486851 86.1641501,51.0190415 C87.9189216,51.1018137 89.3094953,51.7888234 90.4931384,51.5860314 C91.6726428,51.3791008 93.9612954,50.3775566 96.9700664,48.1385674 C99.9995305,45.8871624 103.082797,42.6507677 106.853072,39.8572045 C110.552991,37.1298591 113.354832,35.4619984 114.149445,35.0481372 C114.948198,34.6384146 115.03097,34.6135829 115.159267,34.5101176 C115.283425,34.4025137 115.337227,34.3073256 114.621247,34.4852859 C113.892852,34.6673849 111.144813,35.5571865 110.010833,36.3600772 C108.872715,37.162968 108.363666,37.8582548 108.363666,37.8582548 C108.363666,37.8582548 108.516794,36.6704732 109.443843,35.668929 C110.375031,34.6673849 110.474358,34.5639196 110.652318,34.431484 C110.834417,34.3073256 110.759922,34.2079989 110.449526,34.3818206 C110.143269,34.5680582 108.669923,36.0620972 108.131903,36.8525721 C107.593884,37.6554628 107.304181,38.0900171 105.557687,38.3755814 C103.815331,38.657007 102.242658,39.0460365 101.55151,39.6875214 C100.856223,40.3248677 100.574798,40.9746298 100.574798,40.9746298 C100.574798,40.9746298 100.289233,41.3264118 100.289233,40.8959962 C100.289233,40.4573033 100.574798,38.5535417 102.606856,37.034671 C104.634776,35.519939 105.586657,34.8205135 105.946716,34.5680582 C106.310914,34.3114642 106.290221,34.2079989 106.000518,34.2328306 C105.714954,34.2535237 103.397331,34.6963552 102.354401,35.5158004 C101.294916,36.3393842 100.98452,36.6704732 100.98452,36.6704732 C100.98452,36.6704732 100.698956,36.7532454 100.802421,36.2359189 C100.910025,35.722731 101.406659,34.154197 102.764123,33.2809498 C104.11745,32.403564 105.541132,31.9400395 105.541132,31.9400395 L105.594934,30.6074064 C105.594934,30.6074064 102.710321,29.117506 102.068837,28.6001795 C101.423213,28.0828529 100.77759,27.5158631 101.299055,24.5567554 C101.808104,21.5976477 101.861906,20.9851331 101.841213,20.7244005 C101.808104,20.4719452 100.649293,19.5448961 100.930718,17.8646195 C101.216282,16.2008974 101.857767,15.2490166 101.857767,15.2490166 C101.857767,15.2490166 101.779134,17.2024416 101.803965,18.2577877 C101.837074,19.3089952 101.857767,19.9504801 102.168163,20.3146779 C102.474421,20.6747372 102.503391,20.5174699 102.635826,20.9106381 C102.768262,21.295529 102.072975,24.2256664 101.890876,25.3306759 C101.712916,26.4356853 101.319748,27.4661997 102.172302,27.366873 C103.020717,27.2592691 102.788955,27.0523385 103.020717,26.7998832 C103.25248,26.5391506 103.716004,26.4356853 104.071925,26.5391506 C104.436123,26.6467545 104.638915,26.8247148 105.003113,26.7212495 C105.363172,26.6177842 106.339884,26.7212495 105.777033,27.4123978 C105.214182,28.1159618 104.311964,27.9048926 104.56442,28.5463775 C104.821014,29.192001 107.920834,31.1330101 109.017566,30.4377233 C110.387447,29.5768919 111.086872,29.4030702 111.144813,28.8443576 C111.190338,28.2773677 110.147408,27.3875661 109.402457,27.8055659 C108.653369,28.2111499 107.370399,28.6539814 106.62131,28.4967142 C105.872221,28.3435855 105.669429,28.0042193 105.921884,28.0331896 C106.182617,28.0580213 106.952399,28.3104766 107.676656,27.4661997 C108.392636,26.6136456 114.480534,23.6131518 115.564851,21.8625189 C116.645029,20.1118859 114.956475,15.7828976 115.784197,14.9634524 C116.603642,14.1398686 122.720511,12.7989583 123.825521,12.4306218 C126.143143,11.6567013 127.719955,9.6122269 127.206767,7.7415742 C126.921203,6.70278255 125.385777,4.91076349 123.8876,3.9961302 C123.523402,3.77678376 131.49023,4.89007043 131.651636,12.8279285 C131.721993,16.2422836 136.692466,19.3296882 136.14203,23.0834095 C135.724031,25.8852499 132.89322,28.0704371 131.796488,28.6663973 C132.491775,28.6457042 133.203616,28.6705359 133.919596,28.7491695 C135.132209,28.8816051 136.29102,29.6679414 136.29102,29.6679414 C136.29102,29.6679414 128.171063,30.6570697 125.435441,31.9855642 C120.998849,34.1376425 115.35792,36.8236018 109.029982,41.7030255 C103.082797,46.2886078 100.123689,48.9745671 93.4025827,52.5379122 C91.1346233,53.7422483 89.0280697,53.8788225 88.0472186,54.1064462 C87.0746447,54.3423471 86.0234373,54.8803666 85.8413383,55.5466832 C85.663378,56.221277 85.7627047,57.0200291 85.994467,57.2228211 C86.2262293,57.4338903 86.3503876,57.3511181 86.5076549,57.0200291 C86.6607835,56.6889401 86.5076549,55.5011585 87.2029417,55.0417725 C87.8982286,54.5741093 88.4652184,54.7065449 90.2655147,54.4458124 C92.065811,54.1892184 93.100464,53.7794958 93.4274144,53.7008622 C93.7667806,53.6180899 94.1020082,53.7298325 93.5846817,54.0609214 C93.0756324,54.3920104 92.0947813,55.0914359 90.8035343,55.3480298 C89.5205645,55.6046238 88.7921688,55.6791188 88.4362481,55.9108811 C88.0803275,56.1426433 88.0513572,56.6103065 88.0513572,56.6103065 C88.0513572,56.6103065 89.0322083,56.5027026 89.4460695,56.5854748 C89.8557921,56.6599699 90.8531976,57.181435 91.8795735,57.2435142 C92.9018107,57.3055934 94.8097109,57.6904843 96.3120271,56.1964453 C97.1894129,55.3231981 100.525134,51.8757342 105.421112,49.914032 C109.617665,48.2337555 115.755227,48.4158544 119.401344,43.7557772 Z M130.410053,27.5903581 C129.834786,28.1697638 129.429202,28.6291497 128.804271,28.9685159 C129.636132,28.8278031 130.521795,28.711922 131.440567,28.6705359 C132.516606,27.1351108 133.861655,23.7621418 133.393992,21.4114101 C133.269834,22.4957265 132.884943,25.115468 130.410053,27.5903581 Z M129.160192,19.6235297 C128.15037,17.3721247 124.301461,14.6365021 123.800689,14.5495912 C124.06556,14.8020465 127.061915,19.2220843 127.223321,19.5697277 C128.067598,21.3989943 128.580786,23.0254689 128.27039,24.6560821 C127.959994,26.257725 126.863262,27.623467 125.679619,28.7201992 C126.350074,28.3891102 127.339202,27.8552293 127.82342,27.3999819 C128.41938,26.8536851 131.126033,23.013053 129.160192,19.6235297 Z M119.835899,15.9939668 C121.714828,20.7575094 119.844176,27.2841008 119.571027,27.9214471 C119.29374,28.5587933 117.41481,32.1469701 117.41481,32.1469701 C117.41481,32.1469701 121.325799,29.1216446 122.377006,24.7388543 C123.030907,21.9742614 119.720017,15.7125412 119.835899,15.9939668 Z M112.663684,28.4511894 C112.663684,28.4511894 117.083721,26.7709129 117.609325,25.3141214 C118.006632,24.2132506 117.80384,22.6281621 117.675543,22.330182 C117.547246,22.0280634 113.909406,27.7227937 112.663684,28.4511894 Z M83.7927253,55.7660296 C84.4549033,54.1354164 86.3503876,53.4070207 85.8454769,53.2994168 C84.0120718,52.9145259 83.1719335,54.7437924 83.1181315,54.9010597 C82.9029237,55.4680496 83.5816561,56.2750789 83.7927253,55.7660296 Z M110.412279,9.8191575 C109.729408,8.87969254 107.09725,8.40375215 106.157785,9.35563294 L100.694817,15.5345809 C100.562382,15.7084026 103.206955,9.95159309 103.347668,9.14870233 C103.674618,7.37323772 104.494063,5.15494161 107.262795,5.32048609 C107.958082,5.36601083 112.051169,6.719337 112.634713,7.8781484 C113.214119,9.03695981 111.475902,12.4016515 110.970991,12.4637307 C110.457803,12.5175326 110.88408,10.4730582 110.412279,9.8191575 Z M145.226284,9.69913775 L150.407827,21.6721427 L149.720817,21.6721427 L145.081433,10.8496719 L140.404801,21.6638655 L139.746762,21.6638655 L144.965552,9.69913775 L145.226284,9.69913775 Z M28.3560155,57.5994348 C28.4760353,57.7732565 28.6167481,57.9222466 28.7822926,58.0546822 C28.9436984,58.1829791 29.1216588,58.290583 29.3161735,58.3733553 C29.5106883,58.4561275 29.7134803,58.5182067 29.9245495,58.5637314 C30.1356187,58.6051176 30.3549652,58.6299492 30.5867275,58.6299492 C30.8722917,58.6299492 31.1330243,58.5968403 31.3772024,58.5306226 C31.6213805,58.4644048 31.8324497,58.3650781 32.01041,58.2326425 C32.1883704,58.1002069 32.3290832,57.938801 32.4284099,57.7484249 C32.5277366,57.5580487 32.5773999,57.3469795 32.5773999,57.1110786 C32.5773999,56.8958708 32.544291,56.7096332 32.4780732,56.5523659 C32.4118554,56.3992373 32.3166673,56.2668017 32.192509,56.167475 C32.0683506,56.0640097 31.9234992,55.9812375 31.7538161,55.9191583 C31.584133,55.8529405 31.3854796,55.7991385 31.1578559,55.7536138 L30.1604504,55.5425446 C29.9328267,55.4970198 29.7258961,55.4390793 29.5437972,55.3687229 C29.3616983,55.2983665 29.2002924,55.207317 29.0595796,55.0955745 C28.9188668,54.9838319 28.8071242,54.8431191 28.7284906,54.673436 C28.649857,54.5037529 28.6126095,54.3009609 28.6126095,54.0691987 C28.6126095,53.8332978 28.6622728,53.6222285 28.7574609,53.4235752 C28.852649,53.2290604 28.9933618,53.0593773 29.1713221,52.9186645 C29.3492824,52.7779517 29.5603516,52.6703477 29.8045298,52.5999913 C30.0487079,52.5254963 30.3177177,52.4923874 30.6074205,52.4923874 C30.7895195,52.4923874 30.9592026,52.5048033 31.124747,52.5254963 C31.2861529,52.550328 31.4434202,52.5875755 31.5924102,52.6455161 C31.7414003,52.7034566 31.8821131,52.7779517 32.0145487,52.8690011 C32.1469842,52.9641892 32.267004,53.0759317 32.3787465,53.2083673 L32.0973209,53.4856543 C32.0062714,53.3780504 31.9069447,53.287001 31.7952022,53.2125059 C31.6834597,53.1380109 31.5675785,53.0759317 31.4475588,53.030407 C31.327539,52.9848823 31.1951034,52.9476348 31.0585292,52.9269417 C30.9178164,52.90211 30.772965,52.8938328 30.623975,52.8938328 C30.4004899,52.8938328 30.1935593,52.9228031 30.0031831,52.976605 C29.812807,53.030407 29.6472625,53.1131792 29.5065497,53.2166445 C29.3658369,53.3201099 29.2540943,53.4442682 29.1754607,53.5891196 C29.0968271,53.7339711 29.0595796,53.8912383 29.0595796,54.06506 C29.0595796,54.2347431 29.0885499,54.3795946 29.150629,54.5037529 C29.2127082,54.6279113 29.2954805,54.7313766 29.4030844,54.8141488 C29.5106883,54.8969211 29.6431239,54.9672775 29.7921139,55.0252181 C29.941104,55.07902 30.1190643,55.1286834 30.3177177,55.1700695 L31.3151232,55.3728615 C31.5634399,55.4266634 31.786925,55.4928812 31.989717,55.5715149 C32.192509,55.6501485 32.3704693,55.7536138 32.5277366,55.8860494 C32.6850038,56.018485 32.8091622,56.1840295 32.9002117,56.3868215 C32.9912611,56.5896135 33.0367859,56.829653 33.0367859,57.1110786 C33.0367859,57.40492 32.9788453,57.6697912 32.8588255,57.9098307 C32.7429444,58.1498702 32.5732613,58.3526622 32.3580535,58.5182067 C32.1428456,58.6837512 31.8821131,58.8120482 31.584133,58.898959 C31.2861529,58.9858699 30.9592026,59.0313946 30.6032819,59.0313946 C30.3425493,59.0313946 30.090094,59.0107016 29.8459159,58.9651768 C29.6017378,58.9196521 29.3699755,58.8534343 29.1464904,58.7582462 C28.927144,58.6671968 28.724352,58.5430384 28.5339758,58.3940484 C28.3477383,58.2450583 28.1821938,58.067098 28.0456196,57.864306 L28.3560155,57.5994348 Z M34.9860722,54.5120302 C35.1474781,54.1105848 35.3792403,53.7546641 35.6772204,53.4484068 C35.9752005,53.1421495 36.3269825,52.9062486 36.7325665,52.7365655 C37.1381505,52.5668824 37.5727048,52.4841102 38.0445066,52.4841102 C38.2597144,52.4841102 38.4707836,52.5006646 38.6735756,52.5379122 C38.8763676,52.5751597 39.0667438,52.624823 39.2488427,52.6951794 C39.4309416,52.7655358 39.6006247,52.8483081 39.7661692,52.955912 C39.9275751,53.0593773 40.0807037,53.179397 40.2172779,53.3159712 L39.9565454,53.6346444 C39.8365256,53.5187632 39.70409,53.4152979 39.5633772,53.3201099 C39.4226644,53.2249218 39.2695358,53.1504268 39.1122685,53.0883476 C38.9508626,53.0262684 38.7853181,52.9807437 38.6032192,52.9476348 C38.4252589,52.9145259 38.2431599,52.8979714 38.0569224,52.8979714 C37.6513384,52.8979714 37.2747247,52.9724664 36.9188041,53.1173179 C36.567022,53.2621693 36.2607647,53.4690999 36.0000322,53.7339711 C35.7392996,53.9988422 35.5406462,54.3050995 35.3957948,54.652743 C35.255082,55.0003864 35.1847256,55.3645843 35.1847256,55.7494752 C35.1847256,56.1385047 35.255082,56.5109798 35.3957948,56.8627619 C35.5365076,57.2145439 35.7392996,57.5208012 36.0000322,57.7815338 C36.2607647,58.0422663 36.567022,58.2491969 36.9188041,58.3940484 C37.2705861,58.5388998 37.6513384,58.6133948 38.0569224,58.6133948 C38.2431599,58.6133948 38.4252589,58.600979 38.5990806,58.5720087 C38.7729023,58.5430384 38.9425854,58.5016523 39.1081299,58.4437117 C39.2695358,58.3857711 39.4226644,58.3154147 39.5633772,58.2326425 C39.70409,58.1498702 39.8365256,58.0546822 39.9565454,57.9512169 L40.2172779,58.26989 C40.0765651,58.3940484 39.9275751,58.5016523 39.7661692,58.5968403 C39.6047633,58.6920284 39.4309416,58.7706621 39.2488427,58.8327412 C39.0667438,58.8948204 38.8763676,58.9403452 38.6735756,58.9734541 C38.4707836,59.0065629 38.2597144,59.0231174 38.0445066,59.0231174 C37.5727048,59.0231174 37.1340119,58.9403452 36.7325665,58.7789393 C36.3269825,58.6175334 35.9752005,58.3899097 35.6772204,58.0919297 C35.3792403,57.7980882 35.1474781,57.4504448 34.9860722,57.0572766 C34.8246663,56.6641085 34.7418941,56.24197 34.7418941,55.7908613 C34.7418941,55.3438912 34.8205277,54.9176141 34.9860722,54.5120302 Z M42.4562671,59.0148402 L42.4562671,52.496526 L46.6114337,52.496526 L46.6114337,52.8855556 L42.8990986,52.8855556 L42.8990986,55.4763268 L45.8954538,55.4763268 L45.8954538,55.8529405 L42.8990986,55.8529405 L42.8990986,58.6258106 L46.6114337,58.6258106 L46.6114337,59.0148402 L42.4562671,59.0148402 Z M48.8297298,59.0148402 L48.8297298,52.496526 L48.9828585,52.496526 L53.4856685,57.9719099 L53.4856685,52.496526 L53.9367772,52.496526 L53.9367772,59.0148402 L53.7753714,59.0148402 L49.2725613,53.5477335 L49.2725613,59.0148402 L48.8297298,59.0148402 Z M55.9646972,52.8855556 L55.9646972,52.496526 L60.993111,52.496526 L60.993111,52.8855556 L58.7003198,52.8855556 L58.7003198,59.0148402 L58.2574883,59.0148402 L58.2574883,52.8855556 L55.9646972,52.8855556 Z M63.0375854,52.496526 L63.4804169,52.496526 L63.4804169,59.0148402 L63.0375854,59.0148402 L63.0375854,52.496526 Z M65.3759012,59.0148402 L68.2191278,52.496526 L68.4012267,52.496526 L71.215483,59.0148402 L70.735404,59.0148402 L70.0111468,57.3014547 L66.5719601,57.3014547 L65.8394258,59.0148402 L65.3759012,59.0148402 Z M68.2977614,53.2994168 L66.7292274,56.9207024 L69.8456024,56.9207024 L68.2977614,53.2994168 Z M73.0985515,59.0148402 L73.0985515,52.496526 L73.541383,52.496526 L73.541383,58.6258106 L76.7943322,58.6258106 L76.7943322,59.0148402 L73.0985515,59.0148402 Z M22.9551267,50.630012 L26.5846895,59.0148402 L26.1046105,59.0148402 L22.8558,51.4329027 L19.5780191,59.0107016 L19.1144946,59.0107016 L22.7730277,50.630012 L22.9551267,50.630012 Z M7.70020225,57.3138706 C7.70020225,57.5539101 7.65467752,57.7732565 7.56362805,57.9801871 C7.47257858,58.1829791 7.34842022,58.3650781 7.18701435,58.5182067 C7.02974708,58.6713354 6.84350954,58.7913551 6.6283017,58.8741274 C6.41309387,58.9610382 6.18960882,59.0024243 5.94956931,59.0024243 L2.90355077,59.0024243 L2.90355077,52.4923874 L5.93715347,52.4923874 C6.16477714,52.4923874 6.36756914,52.5420508 6.54966807,52.6372388 C6.73176701,52.7365655 6.88903427,52.8607239 7.01733125,53.0179912 C7.14562822,53.1752584 7.24495492,53.3532187 7.31531132,53.5477335 C7.38566773,53.7463869 7.41877663,53.9450403 7.41877663,54.1478323 C7.41877663,54.4789213 7.33600438,54.7810399 7.1704599,55.0541883 C7.00491541,55.3273367 6.77729174,55.5301287 6.48345028,55.6584257 C6.85592537,55.7701682 7.14976684,55.9729602 7.36911328,56.2792175 C7.58845972,56.5854748 7.70020225,56.9289796 7.70020225,57.3138706 Z M3.37121394,52.9145259 L3.37121394,55.5177129 L5.75505454,55.5177129 C5.93301486,55.5177129 6.09442074,55.4804654 6.23927216,55.4059704 C6.38412359,55.3314754 6.51242056,55.2362873 6.62002448,55.1162675 C6.7276284,54.9962478 6.81040064,54.8596736 6.87247982,54.6982677 C6.934559,54.5410004 6.96352929,54.3754559 6.96352929,54.2140501 C6.96352929,54.0360898 6.934559,53.8705453 6.87661843,53.713278 C6.81867786,53.5560107 6.74004423,53.4194365 6.63657893,53.2994168 C6.53725224,53.179397 6.41309387,53.084209 6.27651967,53.0138526 C6.13580686,52.9434961 5.9785396,52.9103872 5.8088565,52.9103872 L3.37121394,52.9103872 L3.37121394,52.9145259 Z M7.23253908,57.2517914 C7.23253908,57.0821083 7.20356879,56.9124252 7.14148961,56.7510193 C7.07941043,56.5896135 6.99663819,56.444762 6.88489566,56.3206037 C6.77315313,56.1964453 6.64485615,56.0971186 6.49586612,56.0226236 C6.34687608,55.9481286 6.1854702,55.9108811 6.01578711,55.9108811 L3.37121394,55.9108811 L3.37121394,58.5802859 L5.9454307,58.5802859 C6.12752963,58.5802859 6.29721273,58.5430384 6.45447999,58.4685434 C6.61174726,58.3940484 6.74418284,58.2947217 6.85592537,58.1705633 C6.9676679,58.0464049 7.05871737,57.9015535 7.12493516,57.7442862 C7.19529157,57.587019 7.23253908,57.4214745 7.23253908,57.2517914 Z M9.2480432,52.4923874 L11.5201413,56.0971186 L13.8046552,52.4923874 L14.3261203,52.4923874 L11.7601808,56.5440887 L11.7601808,59.0024243 L11.2925176,59.0024243 L11.2925176,56.5275343 L8.73485529,52.4923874 L9.2480432,52.4923874 Z M16.1264166,48.3082505 L2.90355077,48.3082505 L2.90355077,26.3694675 L8.4989544,26.3694675 L8.4989544,43.6481732 L16.1264166,43.6481732 L16.1264166,48.3082505 Z M18.9241184,26.3611903 L24.519522,26.3611903 L24.519522,48.2999733 L18.9241184,48.2999733 L18.9241184,26.3611903 Z M51.0769962,32.9167519 C51.6895108,34.303187 51.9957681,35.7930874 51.9999067,37.3533442 C51.9999067,38.9136009 51.6895108,40.4076399 51.0728576,41.8023522 C50.4562044,43.1970645 49.5581256,44.4386482 48.4034528,45.4898557 C47.2073939,46.5700334 45.8457905,47.4060331 44.3517515,47.9771616 C42.8535739,48.5524286 41.2850399,48.8421315 39.6875356,48.8421315 C38.2886847,48.8421315 36.8939724,48.6145078 35.553062,48.1633991 C34.2121517,47.7122904 32.9622908,47.0583897 31.8448656,46.2182514 C30.3963513,45.1256578 29.2706488,43.8013019 28.5008669,42.2824312 C27.7269465,40.759422 27.3337783,39.0998385 27.3337783,37.3492055 C27.3337783,35.7806715 27.6400356,34.2866326 28.2525502,32.9084747 C28.8609262,31.5344555 29.7672823,30.2887332 30.9426481,29.2168327 C32.0931823,28.157348 33.4465085,27.3254869 34.9695177,26.7419426 C38.0031204,25.5789926 41.3388418,25.5707154 44.3724445,26.7419426 C45.883038,27.3254869 47.2363642,28.157348 48.3993142,29.2168327 C49.5664028,30.2887332 50.4686202,31.5344555 51.0769962,32.9167519 Z M44.4055534,42.1086095 C45.6388599,40.8504714 46.2637903,39.2529671 46.2637903,37.3574828 C46.2637903,35.4744142 45.6305826,33.8727713 44.3807218,32.5939402 C43.1184451,31.2985546 41.58302,30.6694855 39.6875356,30.6694855 C37.7630809,30.6694855 36.2111014,31.294416 34.9488247,32.585663 C33.6989638,33.8603555 33.0657561,35.466137 33.0657561,37.3533442 C33.0657561,39.2695216 33.686548,40.8753031 34.9157158,42.1210254 C36.161438,43.3833021 37.7216948,43.9958167 39.6875356,43.9958167 C41.6161289,43.9958167 43.1598312,43.3791635 44.4055534,42.1086095 Z M60.202636,48.473795 L54.8224402,48.473795 L54.8224402,26.535012 L60.3888736,26.535012 L71.3810275,40.5152438 L71.34378,26.535012 L76.7239758,26.535012 L76.7239758,48.473795 L71.4348294,48.473795 L60.1653885,34.249385 L60.202636,48.473795 Z M87.1781101,48.9455968 C85.4191999,48.9455968 83.8837748,48.6517553 82.6132208,48.0723496 C81.3178352,47.4805281 80.3369842,46.6155582 79.6954993,45.4939943 L79.5465092,45.2332617 L82.8367059,41.7113028 L83.0850226,42.2865698 C83.3871413,42.9901339 83.8630817,43.5322921 84.5376755,43.9378761 C85.2122693,44.3434601 85.9820511,44.5503907 86.826328,44.5503907 C87.8444266,44.5503907 88.6555946,44.3269056 89.2308617,43.8840741 C89.7771585,43.4619357 90.0461683,42.9073617 90.0461683,42.1913818 C90.0461683,41.3843524 89.0073766,40.4779963 87.0373972,39.5799175 C86.3503876,39.2695216 85.7875364,39.0046504 85.3612593,38.7977198 C83.337478,37.8003143 81.9634587,36.8442949 81.1688452,35.871721 C80.3576772,34.8825927 79.9479546,33.6906724 79.9479546,32.329069 C79.9479546,30.4625549 80.7384295,28.9105754 82.2986863,27.7103778 C83.8258342,26.5391506 85.8206453,25.9431905 88.2293175,25.9431905 C89.6323071,25.9431905 90.8697521,26.18323 91.9002665,26.6508931 C92.9390582,27.1226949 93.8661073,27.8717837 94.6524436,28.8691892 L94.8883445,29.1713079 L91.3953558,32.329069 L91.1470391,31.8738217 C90.849059,31.3316635 90.4558909,30.9219409 89.9758119,30.6612083 C89.483317,30.3921985 88.874941,30.2556243 88.1672384,30.2556243 C87.3188229,30.2556243 86.6318132,30.4542777 86.1310412,30.8391686 C85.6551008,31.2075051 85.4233385,31.6710297 85.4233385,32.2504354 C85.4233385,33.1650687 86.5283479,34.0879792 88.6142085,34.9281174 C89.0735944,35.114355 89.4295151,35.2592064 89.6778318,35.3668103 C91.6147023,36.20281 93.079771,37.1712452 94.0233746,38.2390072 C94.9959484,39.339878 95.4925819,40.6187092 95.4925819,42.0299759 C95.4925819,44.1323909 94.7228,45.8333605 93.1997907,47.0832213 C91.6974745,48.3206664 89.6736932,48.9455968 87.1781101,48.9455968 Z M8.96247896,24.4036267 C6.50000473,24.4160426 4.44311449,23.6876468 2.8456102,22.2391326 C1.23982868,20.7823411 0.420383474,18.8992726 0.407967638,16.6478676 C0.395551801,14.4006012 1.20258117,12.5175326 2.79594685,11.0483253 C4.38103531,9.58739522 6.45034138,8.84244504 8.94592451,8.8300292 C9.77778555,8.82589059 10.5930921,8.90452422 11.3670126,9.06593009 C12.1450717,9.22733597 12.9231308,9.48392992 13.6804968,9.82329612 L13.9039819,9.93090003 L13.8294869,14.0446805 L13.1631703,13.5107995 C12.5547943,13.0017502 11.9257253,12.6251365 11.2966562,12.3933743 C10.6675872,12.161612 9.98057755,12.0457308 9.26045903,12.0498695 C7.78711311,12.0581467 6.60760864,12.4761465 5.75091593,13.2997303 C4.8900846,14.1315914 4.47208477,15.2200464 4.480362,16.6271745 C4.48863922,18.009471 4.88180738,19.0648171 5.68883675,19.8594306 C6.49586612,20.6540441 7.57604389,21.0347964 8.98731063,21.0306578 C9.79847861,21.0265192 10.5558446,20.8940836 11.2428543,20.6333511 C11.9340025,20.3767571 12.579626,19.983589 13.1673089,19.470401 L13.8253482,18.895134 L13.8253482,23.0875481 L13.6184176,23.2075678 C12.9148536,23.6048746 12.1657648,23.9069933 11.3959829,24.101508 C10.6303397,24.3001614 9.81089445,24.3994881 8.96247896,24.4036267 Z M25.309997,9.17767262 L31.3730638,24.0435675 L26.8909468,24.0435675 L25.6824721,21.0554895 L20.476098,21.0554895 L19.4414449,24.0435675 L15.1497041,24.0435675 L21.1299987,9.17767262 L25.309997,9.17767262 Z M21.6556024,17.8894512 L24.6395418,17.8894512 L23.1703345,13.8832746 C23.15378,13.8418885 23.1413642,13.7963638 23.1248097,13.7467004 C23.1041167,13.8211955 23.0875622,13.8832746 23.0710078,13.9287994 L21.6556024,17.8894512 Z M36.546329,14.9551752 L36.5504676,24.0435675 L32.7139741,24.0435675 L32.7139741,9.17767262 L36.6084081,9.17767262 L43.7226824,18.104659 L43.7144052,9.17767262 L47.5550373,9.17767262 L47.5550373,24.0435675 L43.8468408,24.0435675 L36.546329,14.9551752 Z M53.7546783,24.0435675 L49.9140462,24.0435675 L49.9140462,9.17767262 L53.8084803,9.17767262 L60.9268932,18.104659 L60.9186159,9.17767262 L64.7551094,9.17767262 L64.7551094,24.0435675 L61.0469129,24.0435675 L53.7464011,14.9593138 L53.7546783,24.0435675 Z M76.6701738,24.0435675 L67.1141183,24.0435675 L67.1141183,9.17767262 L76.6701738,9.17767262 L76.6701738,12.513394 L71.0954632,12.513394 L71.0954632,14.6033932 L76.6701738,14.6033932 L76.6701738,17.9598076 L71.0954632,17.9598076 L71.0954632,20.687153 L76.6701738,20.687153 L76.6701738,24.0435675 Z M83.7472006,24.411904 C82.5552803,24.411904 81.5164886,24.2132506 80.6556573,23.8200824 C79.7699943,23.4144984 79.0954005,22.8185383 78.6567076,22.0487564 L78.5118562,21.7921625 L80.8998354,19.2345002 L81.1440135,19.7973514 C81.3343897,20.2401829 81.6323698,20.5795491 82.0586468,20.8361431 C82.4890625,21.092737 82.9774187,21.2251726 83.5195769,21.2251726 C84.169339,21.2251726 84.6825269,21.0844598 85.0425862,20.8071728 C85.3819524,20.5464402 85.5392196,20.2194898 85.5392196,19.780797 C85.5392196,19.5035099 85.2867643,18.9241042 83.6064878,18.1543224 C83.134686,17.9432532 82.7622109,17.7652928 82.4890625,17.6287186 C81.1274591,16.9582635 80.20041,16.3085014 79.6541132,15.6463234 C79.0954005,14.9634524 78.8098363,14.1440072 78.8098363,13.2086809 C78.8098363,11.9215725 79.3519945,10.8538105 80.423895,10.0343653 C81.4626867,9.23561319 82.8201515,8.83416781 84.4507646,8.83416781 C85.406784,8.83416781 86.2469223,8.99557369 86.9504864,9.31838543 C87.6581891,9.64119718 88.2913967,10.1502465 88.8294163,10.8331175 L89.0611786,11.1269589 L86.5242093,13.4197501 L86.2800312,12.97278 C86.0937937,12.6292752 85.8537542,12.3809584 85.5516355,12.2154139 C85.2453782,12.0457308 84.8563486,11.9629586 84.4093785,11.9629586 C83.8713589,11.9629586 83.4409433,12.087117 83.1305474,12.3271565 C82.8408445,12.5506415 82.7042703,12.8155127 82.7042703,13.1672947 C82.7042703,13.7177302 83.411973,14.2929972 84.7487447,14.8310168 C85.0591406,14.9551752 85.2950415,15.0503633 85.460586,15.1248583 C86.7725261,15.6918481 87.7616544,16.3457489 88.3990006,17.070006 C89.0694558,17.827372 89.408822,18.7047578 89.408822,19.6773317 C89.408822,21.1175687 88.8790796,22.2805187 87.8361494,23.14135 C86.8180508,23.9856269 85.4398929,24.411904 83.7472006,24.411904 Z" id="Cannes-Lions-Logo" fill="#0F2341" fill-rule="nonzero"></path>
    </g>
</svg>